<?xml version="1.0" encoding="UTF-8" standalone="no"?>
<!DOCTYPE svg PUBLIC "-//W3C//DTD SVG 1.1//EN" "http://www.w3.org/Graphics/SVG/1.1/DTD/svg11.dtd">
<svg width="100%" height="100%" viewBox="0 0 192 192" version="1.1" xmlns="http://www.w3.org/2000/svg" xmlns:xlink="http://www.w3.org/1999/xlink" xml:space="preserve" xmlns:serif="http://www.serif.com/" style="fill-rule:evenodd;clip-rule:evenodd;stroke-linecap:round;stroke-linejoin:round;">
    <g id="password-svgrepo-com-1-.svg" serif:id="password-svgrepo-com(1).svg" transform="matrix(0.157506,-0.134604,0.134604,0.157506,96,96)">
        <g transform="matrix(1,0,0,1,-400,-400)">
            <g id="Password" transform="matrix(1.66434,0,0,1.66434,-265.583,-265.731)">
                <g id="Iconly-Curved-Password" serif:id="Iconly/Curved/Password">
                    <g id="Password1" serif:id="Password">
                        <path id="Stroke-1" serif:id="Stroke 1" d="M356.29,399.997C356.29,434.097 328.658,461.73 294.558,461.73C260.458,461.73 232.825,434.097 232.825,399.997C232.825,365.897 260.458,338.263 294.558,338.263L294.658,338.263C328.725,338.297 356.29,365.93 356.29,399.997Z" style="fill:none;stroke:white;stroke-width:50px;"/>
                        <g id="Stroke-3" serif:id="Stroke 3" transform="matrix(1,0,0,0.79561,0,81.7558)">
                            <path d="M356.393,400L566.993,400L566.993,461.733" style="fill:none;fill-rule:nonzero;stroke:white;stroke-width:50px;"/>
                        </g>
                        <g id="Stroke-5" serif:id="Stroke 5" transform="matrix(1,0,0,0.79561,25.8361,81.7558)">
                            <path d="M472.733,461.733L472.733,400" style="fill:none;fill-rule:nonzero;stroke:white;stroke-width:50px;"/>
                        </g>
                        <g id="Stroke-51" serif:id="Stroke 5" transform="matrix(1,0,0,0.795664,-41.458,81.7309)">
                            <path d="M472.733,461.733L472.733,400" style="fill:none;fill-rule:nonzero;stroke:white;stroke-width:50px;"/>
                        </g>
                    </g>
                </g>
            </g>
        </g>
    </g>
</svg>
